# xmcd CD database file
#
# Track frame offsets:
#	150
#	14542
#	29974
#	51118
#	67640
#	86924
#	104057
#	120861
#	132784
#	147024
#
# Disc length: 2414 seconds
#
# Revision: 1
# Processed by: cddbd v1.4PL0 Copyright (c) Steve Scherf et al.
# Submitted via: CDex 1.51
#
DISCID=87096c0a
DTITLE=Steve Stacey - Sounded good at the time
DYEAR=2003
DGENRE=Country
TTITLE0=90 Miles of Highway
TTITLE1=Big Old Freaky Kid
TTITLE2=The Number Blues
TTITLE3=82 Chevrolet Chevette
TTITLE4=The Roommate Song
TTITLE5=Hey Girl
TTITLE6=Somebody New
TTITLE7=I'm Your Guy
TTITLE8=Sell-Out
TTITLE9=A Drunken Man's Ramble Part 1
EXTD=YEAR: 2003
EXTT0=
EXTT1=
EXTT2=
EXTT3=
EXTT4=
EXTT5=
EXTT6=
EXTT7=
EXTT8=
EXTT9=
PLAYORDER=
